HIERARCHY
ROOT Hips
{
  OFFSET 0 0 0
  CHANNELS 6 Xposition Yposition Zposition Zrotation Yrotation Xrotation
  JOINT LeftThigh
  {
    OFFSET 8.409438 0 -5.917753
    CHANNELS 3 Zrotation Yrotation Xrotation
    JOINT LeftLeg
    {
      OFFSET 0 0 -42.358652
      CHANNELS 3 Zrotation Yrotation Xrotation
      JOINT LeftFoot
      {
        OFFSET 0 0 -39.357303
        CHANNELS 3 Zrotation Yrotation Xrotation
      }
    }
  }
  JOINT RightThigh
  {
    OFFSET -8.409438 0 -5.917753
    CHANNELS 3 Zrotation Yrotation Xrotation
    JOINT RightLeg
    {
      OFFSET 0 0 -42.358652
      CHANNELS 3 Zrotation Yrotation Xrotation
      JOINT RightFoot
      {
        OFFSET 0 0 -39.357303
        CHANNELS 3 Zrotation Yrotation Xrotation
      }
    }
  }
  JOINT SpineLow
  {
    OFFSET 0 0 4.719101
    CHANNELS 3 Zrotation Yrotation Xrotation
    JOINT SpineMid
    {
      OFFSET 0 0 12.899191
      CHANNELS 3 Zrotation Yrotation Xrotation
      JOINT Chest
      {
        OFFSET 0 0 12.899191
        CHANNELS 3 Zrotation Yrotation Xrotation
        JOINT LeftShoulder
        {
          OFFSET 7.550562 1.41573 9.438202
          CHANNELS 3 Zrotation Yrotation Xrotation
          JOINT LeftArm
          {
            OFFSET 9.155056 0 4.247191
            CHANNELS 3 Zrotation Yrotation Xrotation
            JOINT LeftForearm
            {
              OFFSET 0 0 25.771955
              CHANNELS 3 Zrotation Yrotation Xrotation
              JOINT LeftHand
              {
                OFFSET 0 0 25.197169
                CHANNELS 3 Zrotation Yrotation Xrotation
              }
            }
          }
        }
        JOINT RightShoulder
        {
          OFFSET -7.550562 1.41573 9.438202
          CHANNELS 3 Zrotation Yrotation Xrotation
          JOINT RightArm
          {
            OFFSET -9.155056 0 4.247191
            CHANNELS 3 Zrotation Yrotation Xrotation
            JOINT RightForearm
            {
              OFFSET 0 0 -25.771955
              CHANNELS 3 Zrotation Yrotation Xrotation
              JOINT RightHand
              {
                OFFSET 0 0 -25.197169
                CHANNELS 3 Zrotation Yrotation Xrotation
              }
            }
          }
        }
        JOINT Neck
        {
          OFFSET 0 0 15.101124
          CHANNELS 3 Zrotation Yrotation Xrotation
          JOINT Head
          {
            OFFSET 0 0 11.325843
            CHANNELS 3 Zrotation Yrotation Xrotation
            End Site
            {
              OFFSET 0 0 14.157303
            }
          }
        }
      }
    }
  }
}
MOTION
Frames: 8
Frame Time: 0.0
0.0  101.685394  0.0  -2.698245  -3.722109  -102.899347  21.658405  -30.262738  5.655257  -7.561578  14.283514  25.224979  0.464841  4.177988  3.098816  -8.556216  7.461956  -0.002617  0.99322  2.482  22.889094  2.788107  1.745087  -0.908523  -5.000611  1.186102  2.736102  -13.527758  3.78561  7.204527  -13.527758  3.78561  7.204527  -19.524314  30.27933  10.886062  -149.995271  66.004894  -141.555127  21.9479  -2.344812  7.748836  52.679785  -4.898265  -11.96526  10.402624  -3.115281  18.125738  59.270763  2.812282  37.968731  -18.056573  -32.292391  -113.218061  45.869769  51.459032  -20.675544  23.070428  -0.662133  1.273664  17.304094  -0.449243  0.981916  
0.0  101.685394  0.0  -2.594468  -4.362182  -102.9185  21.363781  -30.136365  5.797341  -6.942118  14.465185  25.508854  0.711103  4.03981  3.17929  -8.060206  7.22316  -0.528413  1.180557  2.802159  23.646186  3.090229  1.867118  -0.788781  -4.866873  1.129904  2.86898  -13.159631  3.644893  7.585614  -13.159631  3.644893  7.585614  -14.769428  27.274546  11.087116  -161.961136  63.20486  -147.721748  9.309275  -7.574224  10.867458  77.646829  -2.818801  -5.351423  9.949889  -2.542682  19.053194  59.577569  2.150598  38.150404  -16.276654  -32.1218  -113.433407  47.834998  51.743662  -18.015012  22.892495  -0.32524  0.624994  17.169678  -0.220868  0.48174  
0.0  101.685394  0.0  -2.226899  -5.044682  -102.883718  20.283915  -29.316751  6.236944  -5.871613  14.229562  25.793551  1.424188  4.180435  3.319043  -7.572335  7.324597  -1.010734  1.608564  2.986347  24.106363  3.084441  1.913981  -0.735654  -4.839177  1.063239  3.09721  -13.07741  3.505318  8.221613  -13.07741  3.505318  8.221612  -12.326586  25.850436  9.928721  178.744403  65.037248  -161.80435  5.894735  -10.513877  11.848415  83.041611  -1.272121  -2.227863  10.41856  -1.128496  18.483696  62.352112  0.069973  37.239776  -15.968617  -32.788567  -113.389063  50.043273  51.324729  -14.924986  22.733515  -0.224824  -0.077756  17.050086  -0.171795  -0.05003  
0.0  101.685394  0.0  -1.476364  -3.4512  -101.962302  16.909146  -27.131077  6.133561  -4.232796  13.667157  26.216533  2.325919  4.492212  3.509868  -9.230528  8.182711  -2.28578  2.067709  3.069677  24.249142  3.203831  1.99805  -0.669155  -5.045326  1.028767  3.145825  -13.64144  3.44664  8.348501  -13.64144  3.44664  8.348501  -10.835194  25.567213  8.24533  169.120519  66.244084  -168.538287  15.083195  -11.758963  11.158292  68.56047  -0.792139  -6.469201  10.623667  -0.024408  17.351257  64.828304  -2.672124  35.525076  -15.28689  -33.450014  -113.323834  48.357382  52.868656  -13.236601  22.127788  -0.460188  -0.308068  16.595526  -0.35686  -0.214709  
0.0  101.685394  0.0  0.105019  -5.910238  -101.168571  17.738834  -25.07675  5.93054  -2.553289  13.127833  26.669686  2.792463  4.768503  3.468431  -6.574234  9.071529  -3.259916  2.405768  3.02596  24.092826  2.944475  2.066012  -0.704264  -4.406932  1.168963  3.104875  -11.884534  3.741462  8.249753  -11.884534  3.741462  8.249752  -9.58167  25.783568  6.803876  159.404691  67.509282  -174.659952  17.542723  -11.877952  10.306094  59.80182  -1.050322  -9.893527  9.581264  -0.552632  15.780892  67.059903  -5.246915  34.835218  -12.257179  -37.337289  -116.966469  53.081511  53.555165  -9.824745  21.171022  -0.926565  -0.148791  15.877697  -0.701081  -0.079582  
0.0  101.685394  0.0  0.141761  -7.447913  -101.726058  17.598389  -25.023123  6.712539  -1.392617  12.83556  26.923195  3.156548  4.950461  3.471506  -4.684513  8.845123  -2.395086  2.554993  2.98783  23.683751  2.816704  2.160053  -0.687339  -3.856687  1.142965  3.238149  -10.37659  3.623994  8.651042  -10.376589  3.623993  8.651042  -9.325632  26.543929  6.554477  157.211768  68.485836  -174.926695  15.127472  -13.415046  9.458521  62.375004  -1.190708  -8.692961  7.620556  -1.035918  15.2677  67.523419  -5.606535  34.607469  -11.571179  -40.001836  -118.206458  52.953997  52.307506  -10.427625  20.308629  -1.17458  0.452847  15.231815  -0.867015  0.379182  
0.0  101.685394  0.0  0.2118  -7.343127  -101.015628  17.147833  -24.473455  6.204029  -0.925246  12.831786  26.842409  3.331189  4.936666  3.472353  -4.36676  8.936962  -2.71733  2.413544  3.036453  23.147721  2.596436  2.084565  -0.726322  -3.846924  1.10463  3.111175  -10.361894  3.498806  8.310853  -10.361893  3.498806  8.310853  -9.666108  27.282788  7.106118  164.705356  68.742484  -167.69515  12.884003  -14.559769  10.13411  68.369552  -0.275524  -7.130995  6.679305  -1.056364  15.76511  65.876889  -2.639081  35.247909  -11.523053  -38.744477  -115.684491  52.088942  52.104139  -9.892463  20.510386  -1.166189  1.095081  15.384402  -0.838993  0.861602  
0.0  101.685394  0.0  0.310499  -7.005711  -100.446854  17.109688  -24.026043  5.74067  -1.093625  13.053073  26.459006  3.551454  4.759654  3.582915  -4.169289  9.172758  -2.857551  2.049937  3.100969  22.597838  2.00997  1.732606  -0.919119  -4.109797  1.110764  2.87853  -11.092689  3.50933  7.660061  -11.092689  3.50933  7.660061  -8.944231  27.628555  8.293776  175.904207  67.751401  -157.798129  15.815173  -14.520551  10.908926  69.477579  0.095525  -7.008829  7.6258  -1.563104  15.737657  63.948463  -0.192507  36.819269  -12.702106  -35.88636  -113.010068  51.265543  52.025018  -9.320708  21.561904  -1.084539  1.829884  16.174358  -0.749916  1.412755  
